<?xml version="1.0" standalone="no"?><!DOCTYPE svg PUBLIC "-//W3C//DTD SVG 1.1//EN" "http://www.w3.org/Graphics/SVG/1.1/DTD/svg11.dtd"><svg t="1587177318921" class="icon" viewBox="80 80 870 870" version="1.1" xmlns="http://www.w3.org/2000/svg" p-id="4677" xmlns:xlink="http://www.w3.org/1999/xlink" width="200" height="200"><defs><style type="text/css"></style></defs><path d="M853.8 112.6H729.2c-13.2-22.7-37.4-38-65.3-38H359.6c-27.9 0-52.1 15.3-65.3 38h-125c-41.8 0-75.6 33.9-75.7 75.7v685c0 41.7 34 75.7 75.7 75.7h685c41.8-0.1 75.7-33.9 75.7-75.7v-685c-0.2-41.9-34.3-75.8-76.2-75.7z m-189.9 38.5l0.2 75.7-304.4-0.4v-75.3l-0.2-0.4 304.4 0.4zM169.5 873.4l-0.4-684.7h114.4v37.6c0 42.2 34 76.5 75.9 76.5h304.5c42.1-0.2 76-34.4 75.9-76.5v-37.6l114.1-0.3 0.3 684.7-684.7 0.3z" p-id="4678"></path><path d="M696.5 684.5l-0.1-0.1c-11.7-11.7-24.1-21.1-37.7-28.5 21.1-20.1 33.1-48.4 33.1-79.1 0-29.2-12.2-57.8-33.4-78.6-21.2-20.7-48.8-31.8-77.7-31.1-60.7 1.4-108.2 49.6-108.2 109.7 0 30.2 11.8 57.9 33.5 79.1-14.5 8.1-27.6 17.9-38.1 28.4-28.4 28.4-45.5 68.5-46.9 110.4 0 6.3 4.3 10.6 10.6 10.6h29.1c6.3 0 10.6-4.3 10.6-10.3 1.3-29 12.5-54.9 32.4-74.8 21.2-21.2 48.3-32.4 78.5-32.4 30.2 0 57.3 11.2 78.5 32.4 19.9 19.9 31.1 45.8 32.4 74.6 0 6.3 4.3 10.6 10.6 10.6h29.1c6.3 0 10.6-4.3 10.6-10.8-1.5-40.9-18.1-79.9-46.9-110.1z m-72.7-65.1c-9.2 8.3-23.9 18.1-41.8 18.1-16.2 0-31.2-6.4-41.5-17.9-12-12-17.9-26-17.9-42.9 0-15.3 5.9-29.5 16.8-40.5 10.1-11.2 25.1-17.6 41.3-17.6 15.5 0 31.2 6.1 43.1 16.8 11.4 10.2 17.6 25.4 17.6 42.6 0.1 16.3-6.4 31.4-17.6 41.4z" p-id="4679"></path><path d="M454.6 603.6l1.3-2.7c0.3-0.6 0.6-1.1 0.8-1.5 1.1-1.8 2.5-4.3 2.5-8 0-2.5-0.4-5-0.7-7.5-0.3-2-0.6-4.2-0.6-5.7 0-7.4 1.2-14.8 2.5-22.7l0.1-1.1c0-7.8-4.7-9.9-7.5-10.4-4.7-2-10.2-6.1-15.6-11.5-12.6-12.6-19-28.2-17.9-44.2 0-14.8 5.6-27.9 16.5-38.9 11.5-11.5 26.7-17.9 42.9-17.9 13.5 0 27.9 5.5 40.5 15.5 3.6 3.6 6.9 7 9.1 11.2l0.5 1 0.8 0.8c1.4 1.5 5.8 5.8 12.3 2.9 9-2.6 17.5-5 27.3-6.2 3-0.2 5.8-1.9 7.5-4.6 2.1-3.4 2.3-8 0.5-11.7-18.7-35.9-55.8-59-96.9-60.4-29.1-0.6-56.5 10.4-77.7 31.1-21.2 20.8-33.4 49.4-33.4 78.6 0 30.2 11.8 57.9 33.5 79.1-14.5 8.1-27.6 17.9-38.1 28.4-29.8 29.8-46.9 70-46.9 110.4 0 6.3 4.3 10.6 10.6 10.6h29.1c6.3 0 10.6-4.3 10.6-10.3 1.3-29 12.5-54.9 32.4-74.8 13-13 31.7-23.5 51.2-28.7l2.8-0.8z" p-id="4680"></path></svg>
